<svg xmlns="http://www.w3.org/2000/svg" viewBox="0 0 220 220" fill="none" role="img" aria-hidden="true">
  <path d="M206 15C140 42 94 88 56 164" stroke="#6C8F7A" stroke-width="3" stroke-linecap="round"/>
  <path d="M170 42c-2-22 13-34 36-36 1 23-12 36-36 36Z" fill="#6C8F7A" opacity=".45"/>
  <path d="M135 74c-1-19 12-31 32-33 2 20-12 33-32 33Z" fill="#6C8F7A" opacity=".38"/>
  <path d="M102 112c-1-20 13-30 32-32 1 20-12 32-32 32Z" fill="#C86F4A" opacity=".32"/>
  <path d="M72 154c-2-18 10-28 29-31 2 20-10 31-29 31Z" fill="#6C8F7A" opacity=".42"/>
</svg>
