<svg xmlns="http://www.w3.org/2000/svg" viewBox="0 0 320 220" role="img" aria-label="Ayuda contextual">
  <rect width="320" height="220" rx="28" fill="#EEF2EF"/>
  <circle cx="150" cy="100" r="70" fill="#DDE8DF"/>
  <path d="M143 75c-22 2-36 20-34 42 2 24 22 38 45 36 22-2 37-19 35-42-2-24-23-38-46-36Z" fill="#6C8F7A" opacity=".35"/>
  <path d="M142 70c18 0 31 14 31 32v34h-62v-34c0-18 13-32 31-32Z" fill="#0B1D34" opacity=".12"/>
  <circle cx="142" cy="83" r="22" fill="#F2C7AC"/>
  <path d="M122 82c2-22 36-32 48-8 0 0-14-2-25 4-10 6-23 4-23 4Z" fill="#0B1D34"/>
  <path d="M116 135c14-13 38-13 52 0l16 60h-84z" fill="#6C8F7A"/>
  <path d="M184 132c22 8 41 22 59 42" fill="none" stroke="#0B1D34" stroke-width="5" stroke-linecap="round"/>
  <rect x="218" y="48" width="66" height="50" rx="12" fill="#FFFCF7" stroke="#0B1D34" stroke-width="3"/>
  <path d="m251 60 4 12 12 4-12 4-4 12-4-12-12-4 12-4Z" fill="none" stroke="#0B1D34" stroke-width="3"/>
</svg>
